/* XPM */
static char *result[] = {
/* columns rows colors chars-per-pixel */
"50 50 49 1 ",
"  c #3B2B20",
". c #402E21",
"X c #453124",
"o c #543623",
"O c #563927",
"+ c #553C2C",
"@ c #593F2E",
"# c #583F30",
"$ c #564435",
"% c #594334",
"& c #564538",
"* c #5C4739",
"= c #5C4A3C",
"- c #604633",
"; c #604A3A",
": c #65503E",
"> c #5E4E42",
", c #5C5247",
"< c #5D5349",
"1 c #604E41",
"2 c #615245",
"3 c #62564B",
"4 c #64594E",
"5 c #6A5A4B",
"6 c #645C53",
"7 c #695E52",
"8 c #665F58",
"9 c #666057",
"0 c #6B6256",
"q c #676159",
"w c #6A645C",
"e c #6D685F",
"r c #70675A",
"t c #716A5D",
"y c #6E6A60",
"u c #716C62",
"i c #786E60",
"p c #7B7365",
"a c #76746A",
"s c #7B776E",
"d c #83796D",
"f c #867E73",
"g c #888176",
"h c #868579",
"j c #8F8D85",
"k c #908E87",
"l c #929087",
"z c #94928A",
"x c None",
/* pixels */
"-----.X--------------------x----*--------------XX%",
"hhhhhtphhhhhhhhhhhhhhhghhhh:hhhhhhghhhhhhhhhhhhpph",
"hhhhhpdhhhhhhhhhhhhhhhhhhhh5hhhhhhhhhhhhhhhhhhhpph",
"klllzdgzzlljjkkkkkkjkkkkzzz7zzzzllljlzlzzllkzzzhfz",
"uuuyu59yyuuyyeeeeeeeeeeeeee-tyeeeeeeeeeeeeeeeee54y",
"yyyyu50yyyyyyeeeeeeeeeeeeey*tteeeeeeeeeeeweeeee54t",
"yyyyy57eyeyyeeeeeeeeeeeeeee*eeeeeeeeweeqwewewew45e",
"eyeye37eyyeeeeeeweeweeeweee*wweweeqweweeewewwwe43e",
"weeqe34eeewteeweeweweeeewee%eweweqewweeqeqeeeee53w",
"eqwwe13wwwywweqeqeqeqwqwwwe@wwwwweqeeqqeqeqqqqe22e",
"wwqew13www8wwwwweqqwwqwwwwwOwwwwwqqeqeqqqeeqqqw22w",
"qqqq8=3q88wwqwwwwqeqwwqwwqqoqqw8wqqqqqqewqqwqew21w",
"qq8y8&,8w8qqqqqqqqqqqqqwqwwOwwqqwqqwwqwwqqqwqww22w",
"qq888>>8qqq8qqqqqqqqqwqq8q8o88qqqqqq8q8qqqqqq09,>8",
"ooooo++oooooooooooooooooooo&ooooooooooooooooooo+@o",
"<<<<,<<o<<,,<,,,<<<<,,,,,,,,,,<<$*,,,,,<,<<<<<<<,,",
"4<<<<<<o<,,,,,,,,,,,,,,,,,,,,,,,$&,,,,,<,,<,<<<<,<",
"<4<4<<<X,,,,,,,,,,,,,,,,,,,,,,,,&>,,,,<<,,<<,<,<<,",
"<<<<<<<+<,,,,,,,,,,<,,,,,,,,,,,,&&,,,,<<,,<<,<<<<<",
"<6<4<<<+<,<<<<,,,,<<<,<<<<,<,,,,&>,,,<<<<<<<<<<<<<",
"8888888*9wqw9qqq999qqq9qqqqqqqqq>3wqqqq88888w88qqq",
"&,>,,>>$<<6<44444<3234466<646<,=%*>46<6646>>*>>>36",
"we9qw00wwwewwwwweww,wwwweqwwww9987wwwwewwy8w*47www",
"9qqqqqqq9qqqq9wqqqq,qq9qqqqq9qq9qq8qq8qq8888>6w88q",
"qqqqqqqqqqqqqqqqqqq>qq9qqqqqqqqqqqqqqqqqqqqq,7qqqq",
"qqqqqqqqqqqqqqqqqqq>qqqqqqqqqqqqqqqqqqqqqqqq68qqqq",
"qqq9qqqqqqqqqqqqqqq>qqqqqqqqqqqqqqqqqqqqqqqq48qqqq",
"qqqqqqqqqqqqqqqqwqq%qqq8qqqqqqqqqqqqqqqqqqq948q9qq",
">,3644332233433333>+>36666667634633<68666666366666",
"34889974@478846643333688688qqq673387878989788q8978",
"8899999q@89888888888888888899999369988q898qq89q8qq",
"88888888,88888888888888888888899348888888888888888",
"88888888<88888888888888888888888448888888888888888",
"88888888488888888888888888888888468888888888888888",
"88888888388888886888888888888888><8888868888888888",
"33476666<88666666666666646666643*><666666663344866",
"=336868668888886644=4646646646>1111666666663#>3686",
"q8qqqqqq888q8888q8q>qqqqq8qq88qq88qq88q88q88>6q8qq",
"8888888888888888888>888888888888888888888888488888",
"8888888888888888888<888888888888888888888888468888",
"8888888888888888888=888888888888888888888888488888",
"8888888888888888888%8888888q8888888888888888>68888",
"8687888686888866786%6788877q6878688668666868136887",
"-%---*;-%---%-----%*%----%-2-%----------------#>;-",
"aaaaa5wpaaaaaaaaaaaaaaaaaaa;aaaasaaaaaaaaaaaaaa00a",
"aaaaartaaaaaaaaaaaaaaaaaaaa5aaaaaaauaaaaaaaaaaarta",
"sssasruaaasaaaaasaaaaaaaaaa5aaaaaasaaasaaaaaaaayea",
"sssssrussssssssssssssssssss5sssssssssssssssssssita",
"99999579999999999999999999939999888888q89999999579",
"99999=,99999999999999999999o9999888888999999999>>9"
};
